<?xml version="1.0" encoding="UTF-8"?>
<svg version="1.1" viewBox="0 0 2000 2000" width="500" height="500" xmlns="http://www.w3.org/2000/svg">
<path transform="translate(0)" d="m0 0h2e3v2e3h-2e3z" fill="#FDFDFD"/>
<path transform="translate(717,682)" d="m0 0h2l-2 4-8 7-7 7-7 8-13 14-7 9-13 17-14 21-10 17-10 19-13 29-8 21-6 20-1 4 3 2-3 9-11 19-7 16-4 15-3 21v32l4 20 6 16 7 12 3 13 5 25 6 23 17 53 10 25 11 21 12 18 13 18 10 14 13 16 7 8 4 4 5 1 14 12 11 10 11 8 14 11 14 10 18 12 23 13 22 11 24 10 23 8 27 8 23 5 24 3 11 1h49l32-2 27-4 23-5 22-7 29-10 20-8 26-13 21-12 15-10 19-14 11-9 14-12 15-14 5-6 7-6 7-8 7-7 13-17 12-18 15-26 20-40 8-19 6-19 9-36 5-28 3-29v-51l-3-31-4-25v-5l15-2 6-1 3 16 4 34v54l-3 30-5 30-8 32-11 33-8 20-8 16-1 3 13-23 5-11h1l-1 8-6 16-8 17-11 20-8 16-11 16-7 11-6 8-5 3-8 11-11 12-30 30-8 7-13 11-10 8-12 9-19 12-17 10-22 12-24 12-24 9-28 8-35 7-25 3-56 5h-42l-24-5-21-5-15-3-2-1v4l-11-3-44-15-15-6-20-10-21-12-14-9-13-10-14-12-11-9-8-6-16-10-14-12-10-10-7-8-13-16-14-17-10-13-10-15-9-16-12-25-9-23-8-24-11-37-4-17-5-42-1-14-1-27v-27l2-33 4-42 2-19 5-14 15-27 6-12 9-21 8-15 9-12 13-21 9-9 7-8 8-8 10-8 10-9 11-9 5-5h2v-2l8-7 3-3h2z" fill="#100506"/>
<path transform="translate(841,844)" d="m0 0h12l20 2 18 4 16 8 12 11 10 15 6 15 2 10-1 8-12 30-5 9-9 8-4 2 1 7 9 30 17 56 1 6-8 3-38 11-5 1-3-6-9-27-17-40-3-7-10 2-16 4-2 34-3 28-2 1-10-1h-19l-15 2-11 2-1-2v-46l1-48v-65l-1-55 2-2 27-4 38-5z" fill="#FC3135"/>
<path transform="translate(1305,911)" d="m0 0 4 1 4 17 3 20 2 25v47l-4 28-8 32-8 24-4 8 14-3h6l5-11 6-19 4-3h2l-2 9-8 24-2 4 4 2-1 6-6 16-10 19 2 4 8 7v7l-3 16-8 5-13 7-9-2h-6v2l-5 4-10 13-28 28-8 7-12 10-11 8-18 12-22 13-27 14-24 9-24 6-27 5-40 5-17 2h-33l-18-2-30-7-7-1-1 1-7-1-19-6-27-10-17-8-18-10-15-10-16-13-8-7-12-9-11-6-12-11-10-10-9-11-8-10-13-15-7 1-5 2-7-1-8-4-4-6-3-13v-11l4-13 1-1v-6l-6-15-7-22-7-24v-4h15l4 10 12 35 6 13 7-1 13 5 4 4 1 3v13l-2 5-4 3 2 5 9 14 3 4-1-14v-18l-18-35-8-19-7-21-1-8 10-3 6-3h2l1 14 4 14 8 21 5 13 3 5 13-1 2 17 9-6 4-2 8 1 12 6 4 4 1 3 1 15-3 39-1 3-8-1-5-2-2-4-8-7-14-17-2 12-2 1h-6l-2-1v-2h-2l11 14 12 13 7 8 10 10 11 9 16 13 18 12 14 9 23 12 29 12 18 6 24 6 22 4 29 3h41l32-3 26-5 19-5 20-7 25-11 16-8 18-10 17-11 16-12 14-12 7-7 8-7 9-10 10-11 5-6v-17l1-1 12-1 6-8-1-6-8-13-7 12-8 11-5 8-12 13-7 8-4 5-8 7-11 11-14 11-18 13-19 12-22 12-23 10-27 9-25 6-25 5h-7l1-2 13-3 17-3 28-7 28-10 20-9 22-12 5-5v-3l9-3 11-7 11-8 13-12 4-2v-2l8-7 15-16 1-2-6 3-8-1-9-5-4-8-2-8v-13l3-10 5-8 7-6 8-3h8l12 5 3 4 1 3v11l-2 6-7 5-20 9 4 1 14-4 9-2 10-14 6-12 6-20 4-10 7-1 2-6 9-25 5-19 5-30 3-26v-47l-3-26-4-24z" fill="#130607"/>
<path transform="translate(1037,574)" d="m0 0h15l33 4 31 6 20 6 42 16 33 17 27 16 8 4 7 1 5 7 9 7 8 8 11 9 12 11 8 7 8 8 7 8 9 10 13 17 11 15 11 17 11 19 12 23 9 20 8 22v3l-7 1h-14l-9-21-7-16-12-22-10-17-14-21-8-10-14-18-8-8v-2l-4-2v-2l-2 1 10 10 8 10v2l4 2 11 14 10 15 12 21 14 26 9 19 7 18v1h-5l-7-19v3l4 16-4-1-9-21-8-16-15-28-8-11-4-7v-2l-4-6-8-9-12-16-11-12-9-10-17-16-14-12-16-12-24-16-21-12-29-13-37-14-17-6-32-8-21-4-9-1h-30l-60 6-19 3-59 17-20 7-20 9-23 11-24 13-17 11-15 16-10 10-8 7-22 22-14 19-13 19-12 17-9 14-12 21-15 29-9 6-11 8-1-3 10-26 8-18 8-16 11-20 18-27 9-12 9-11 11-13 4-5h2l2-4 9-9 8-7 10-9 14-11 18-14 10-7 28-17 25-12 33-14 23-7 37-9 28-4 52-4 10-2 22-1-3-1-1-10z" fill="#140607"/>
<path transform="translate(1120,846)" d="m0 0 65 2 35 2 19 2 1 3-5 29-2 8-33 1-13 1 1 32h35l3 12 6 29v5l-35 2h-9l1 13 1 26 1 2 33-1h35l4 31v10l-39 3-31 3-34 5-25 5h-5l-1-13-1-43-3-77-2-49-2-29z" fill="#FC3135"/>
<path transform="translate(957,846)" d="m0 0 66 2 33 2 20 2v9l-5 29-2 2-30 1-15 1 1 32h35l6 27 3 14v5l-35 2h-9l2 32 1 9 32-1h35l2 7 3 25v8l-1 1-39 3-38 4-32 5-18 4h-6l-1-15-3-94-3-74-2-27z" fill="#FC3135"/>
<path transform="translate(680,855)" d="m0 0h10l3 4 11 25 4 8v4l-13 5-12 6-13 8-11 9-10 10-10 14-6 12-4 14v9l5 14 7 13 6 7 8 4 4 1h24l9-3v-13l-1-1-17-1v-44l11-1 37-1 5 5 11 13 3 5 1 5 1 26-4 17-5 12-7 10-7 6-10 6-14 4-5 1h-29l-20-4-18-6-13-8-7-6-10-14-7-16-4-15-1-8v-31l3-18 5-16 7-16 7-12 7-9 16-16 16-10 25-6z" fill="#FC3135"/>
<path transform="translate(1287,860)" d="m0 0h15l43 3h51l16-1 1 1 5 35v4h-41l1 3 2 66v42l-4 46-3 2-37 7-4-1-2-40-2-20-3-79v-25l-26 1h-16l1-18z" fill="#FC3135"/>
<path transform="translate(980,676)" d="m0 0h23l17 3 43 3 33 8 30 10 20 9 23 13 19 12 14 11 14 12 22 22 7 8 12 15 10 14 8 14 6 10 4 9-6-1 1 10h-3l-9-16-7-12-6-8-2-7-7-7-10-14-15-16-7-7-11-9-9-8-13-10-24-15-21-11-41-16-26-8-28-6-15-2h-17l5 1 15 1v1l-6 1-55 3-14 2h-10v3l-13 4-31 9-12 4-23 10-17 9-14 7-11 8-12 13-17 16-13 13-17 25-12 17-11 17-10 17-9 17-3 9h-3l-5-12-2-7 5-12 9-19 10-17 9-14 13-17 11-13 7-8 17-17 11-9 18-14 22-14 15-9 19-9 28-11 21-6 22-5z" fill="#140607"/>
<path transform="translate(715,1068)" d="m0 0h2l1 14 4 14 8 21 5 13 3 5 13-1 2 17 9-6 4-2 8 1 12 6 4 4 1 3 1 15-3 39-1 3-8-1-5-2-2-4-8-7-14-17-2 12-2 1h-6l-2-1v-2h-3l-2-6-1-12v-18l-18-35-8-19-7-21-1-8 10-3z" fill="#120506"/>
<path transform="translate(837,1092)" d="m0 0 3 1-1 33 6-1h18l2 14v6l-26 1-2 55-1 11-9 4-6 2-1-1-5-51v-20h-15v-18l16-1v-16l1-12 7-3z" fill="#0F0506"/>
<path transform="translate(1008,1129)" d="m0 0h2v8l16 2 11 3 5 6 1 3v15l-2 9-10 8-12 8-4 3-2 54-6-2-11-5-1-26v-65l1-17 3-2z" fill="#0E0506"/>
<path transform="translate(1391,910)" d="m0 0 5 1 5 30 3 34v35l-2 26-5 32-7 30-12 36-11 26-13 26-11 18-13 19-16 21-9 10-7 8-11 12-17 16-13 11-17 13-11 8-20 13-21 12-14 7-24 10-25 9-15 5-32 8-37 6h-5l1-2 36-7 44-11 27-9 27-12 22-11 15-9 3-2 3-5 12-6 10-7 11-8 15-13 12-11 21-21 9-11 12-15 12-17 10-15 14-24 11-23 11-28 8-25 6-26 5-30 3-26 1-15v-32l-3-37z" fill="#28090B"/>
<path transform="translate(1193,1109)" d="m0 0 4 4 3 5-1 4-12 9-7 6-3 10 1 5 10 9 8 7v8l-3 15-13 8-7 4-10-2-17-5-2-1v-13l1-1 16-1 5-2-1-7-14-23-1-5 10-27 13-3z" fill="#0C0405"/>
<path transform="translate(607,1058)" d="m0 0 4 1 12 7 9 3 2 7 3 33 5 17 10 24 5 14 9 17 5 12 14 32 10 17 10 14 7 8v2h-2v-2h-2v-2h-2l-18-22-12-16-12-18-11-18-17-33-11-28-9-28-9-38z" fill="#170607"/>
<path transform="translate(862,901)" d="m0 0h5l10 14 3 4-1 5-9 16-6 5-29 12-9 4h-4l-4-36-1-10v-13z" fill="#FEFEFE"/>
<path transform="translate(947,1119)" d="m0 0h4v16l5-3 5-4 7-4 5 1 13 13-2 9-2 7-5-2-8-6h-4l-10 14-2 10-3 23-2 5-15 4h-4l-1-30v-47l8-3z" fill="#0C0405"/>
<path transform="translate(1071,1119)" d="m0 0h3l1 16 12-9 4-2 5 1 12 12 1 4-4 12-5-1-8-6h-4l-11 16-4 32-2 4-14 4h-5l-1-30v-47l9-3z" fill="#0C0405"/>
<path transform="translate(896,1134)" d="m0 0h9l9 4 5 5 1 3v12l-2 5-8 5-12 6-7 2v3l21-6 4 1 4 6-1 4-19 10-5 2-9-2-7-4-4-8-2-8v-13l3-10 6-9 6-5z" fill="#100506"/>
<path transform="translate(1042,657)" d="m0 0 16 2 28 5 25 7 19 7 23 10 26 14 20 12 3-2 9 10 8 7 10 9 11 9 16 16 9 11 11 14 13 18 9 15 10 18 5 11v4l-6-2-5-8-13-25-16-24-11-14-12-14-25-25-11-9-12-10-21-14-23-13-16-8-18-8-27-9-31-7-20-4-4-2z" fill="#2D0A0C"/>
<path transform="translate(777,743)" d="m0 0v3l-8 7-12 12-9 11-10 12-11 16-9 14-12 21-5 10-16-1 1-6 7-14 11-16 9-15h2v-2l8-7 10-9 13-10 8-6 12-11z" fill="#170608"/>
<path transform="translate(673,922)" d="m0 0 3 1-4 28-1 1h-6l1 22v30l-1 7 5 2-1 3h-7l-7-3-1-2-1-14v-24l2-31 3-6z" fill="#210809"/>
<path transform="translate(1118,1135)" d="m0 0h15l1 1 2 25v13l-1 17-2 3-10 2h-4l-1-4-1-17v-35z" fill="#110506"/>
<path transform="translate(714,901)" d="m0 0h2l-1 8-7 26-3 15-1 1h-15l1-10 6-29 4-5z" fill="#140607"/>
<path transform="translate(1184,631)" d="m0 0 5 1 25 12 23 14 22 15 13 10 22 18 14 14v2h2l7 8 8 8 10 13 12 17 10 14 10 16v3h2l6 18-1 2-8-16-11-19-11-16-9-12-12-14-9-11-15-16-16-16-2-1v-2l-4-2-10-8-15-11-20-14-19-11-12-7-17-8z" fill="#FDFDFD"/>
<path transform="translate(764,1165)" d="m0 0 7 1 4 2v28l-1 9-4-2-7-10-10-17 1-5z" fill="#FEFEFE"/>
<path transform="translate(1014,592)" d="m0 0h26l35 5 22 5 15 3 22 6 30 10 20 9-3 1-19-8-36-12-26-6-21-4-21-3-28-2h-25l2-3z" fill="#FEFEFE"/>
<path transform="translate(1169,1352)" d="m0 0 2 1v2l-21 9-25 9-15 5-32 8-37 6h-5l1-2 36-7 44-11 27-9z" fill="#450F11"/>
<path transform="translate(725,1143)" d="m0 0h2l7 14v23l1 10-5-5-11-17 1-3 4-3 1-4z" fill="#FEFEFE"/>
<path transform="translate(1159,1261)" d="m0 0 2 1v2l-22 12-23 10-27 9-25 6-25 5h-7l1-2 13-3 17-3 28-7 28-10 20-9z" fill="#671517"/>
<path transform="translate(1131,1113)" d="m0 0 3 1v14l-1 2-11 2-5-1v-14z" fill="#24090A"/>
<path transform="translate(1356,803)" d="m0 0 4 5 8 16 8 18 5 14h-5l-7-19-1-2-2 1-6-14-6-18z" fill="#380C0E"/>
<path transform="translate(1295,716)" d="m0 0 3 1 7 8 8 8 9 12 12 15 16 25 8 14 7 13-1 3-3-3-13-24-13-22-8-11-11-14-5-5-9-11-7-7z" fill="#FDFBFB"/>
<path transform="translate(1169,1352)" d="m0 0 2 1v2l-21 9-25 9-15 5-6 1 2-4 27-8 25-10z" fill="#5F1416"/>
<path transform="translate(1159,1261)" d="m0 0 2 1v2l-22 12-23 10-9 3-3-1 4-3 20-8 16-8z" fill="#340C0D"/>
<path transform="translate(1020,1154)" d="m0 0 4 2 1 9-8 6h-4v-14z" fill="#FEFEFE"/>
<path transform="translate(939,1328)" d="m0 0h8l26 4 36 3v1h-31l-26-4-13-3z" fill="#FC474A"/>
<path transform="translate(964,685)" d="m0 0h45v1l5 1 15 1v1l-6 1h-20l-2-2-10-1h-15l-12-1z" fill="#FC3135"/>
<path transform="translate(1242,1153)" d="m0 0 3 2-10 7-7 4h-3l1-4 2-4 7-3z" fill="#FEFEFE"/>
<path transform="translate(906,1153)" d="m0 0 3 2-10 7-8 4h-2l1-4 3-5z" fill="#FEFEFE"/>
<path transform="translate(1103,1287)" d="m0 0 2 1v2l-27 8-7 1 1-3 22-6z" fill="#73171A"/>
<path transform="translate(1130,1276)" d="m0 0 2 1v2l-19 8-9 2 4-4 20-8z" fill="#5D1315"/>
<path transform="translate(1305,1131)" d="m0 0 1 2-6 12 1 4 1 2-4-1-1-1v-6l5-10z" fill="#FEFEFE"/>
<path transform="translate(1356,808)" d="m0 0 2 1 10 22-1 5-2-3-5-11-3-9z" fill="#FC484B"/>
<path transform="translate(1295,716)" d="m0 0 3 1 7 8 8 8 3 5-2 2-11-14-8-8z" fill="#FC5558"/>
<path transform="translate(1169,1352)" d="m0 0 2 1v2l-16 7h-4v-2z" fill="#561214"/>
<path transform="translate(1149,1361)" d="m0 0 4 2-23 8-3-2z" fill="#861B1D"/>
<path transform="translate(1053,1387)" d="m0 0 8 1v1l-20 3h-5l1-2z" fill="#C12629"/>
<path transform="translate(1366,796)" d="m0 0h3l6 18-1 2-8-16z" fill="#FC7B7E"/>
<path transform="translate(1315,1123)" d="m0 0 1 3-8 16-3 3 1-5 5-10z" fill="#FEFEFE"/>
<path transform="translate(939,1328)" d="m0 0h8l17 3v1l-8 1-17-4z" fill="#FC3135"/>
<path transform="translate(1042,657)" d="m0 0 16 2-2 1v2l-10-2-4-2z" fill="#861B1D"/>
<path transform="translate(1069,1384)" d="m0 0 3 1v2l-5 1h-10l2-2z" fill="#6C1618"/>
<path transform="translate(1124,1370)" d="m0 0h5l-1 2-8 3h-5l2-3z" fill="#561214"/>
<path transform="translate(1402,1142)" d="m0 0h1l-1 8-2 6-3-1 3-9z" fill="#601416"/>
<path transform="translate(777,743)" d="m0 0v3l-8 7-5 4v-3l10-9z" fill="#E32C30"/>
<path transform="translate(1065,596)" d="m0 0 10 1 5 1v1l-9 1-5-1z" fill="#FC5F62"/>
<path transform="translate(1080,1294)" d="m0 0 5 1-4 2-10 2 1-3z" fill="#77181A"/>
<path transform="translate(1356,803)" d="m0 0 4 5 2 6-4-2-1-3-3-3 1-2z" fill="#6E1619"/>
<path transform="translate(1114,1283)" d="m0 0 2 1-3 3-9 2 4-4z" fill="#410E10"/>
<path transform="translate(1159,1261)" d="m0 0 2 1v2l-10 5 1-4z" fill="#4A1012"/>
</svg>
